#!OML:ASF H:\Terrain\Patient Classification 1\Animal1\Tuesday\Animal1.ASF
:FULLY-SPECIFIED
:DEGREES
1476
root 14.295 15.9165 -25.6547 -171.612 -163.931 -175.593
lowerback 16.4887 -2.9354 1.47745
upperback 6.73693 -3.6153 1.53219
thorax -2.04278 -1.81245 1.41961
lowerneck -2.88773 -1.34833 -7.78818
upperneck -21.2002 -1.45143 4.82442
head -5.83336 -0.532549 2.92123
rclavicle -1.39149e-014 5.00937e-014
rhumerus 0.424446 49.5975 -29.1217
rradius 47.8274
rwrist -45.3676
rhand -27.0303 5.85386
rfingers 7.12502
rthumb -0.44938 -24.1254
lclavicle -1.39149e-014 5.00937e-014
lhumerus -6.5919 -64.3421 53.2521
lradius 67.8737
lwrist -16.5185
lhand 7.50427 46.9593
lfingers 7.12502
lthumb 32.7556 -1005.99
rfemur -31.3546 3.6228 13.7762
rtibia 37.0159
rfoot -6.70122 -28.235
rtoes 0.657814
lfemur -21.4295 0.00982548 -9.50683
ltibia 26.31
lfoot -8.73516 11.3419
ltoes -11.6874
1477
root 14.3258 15.9259 -25.6037 -171.712 -163.877 -175.873
lowerback 15.9121 -2.82821 1.63972
upperback 6.34336 -3.45019 1.77325
thorax -2.1517 -1.7305 1.53394
lowerneck -3.04451 -1.56957 -7.9269
upperneck -20.4016 -1.7272 4.94179
head -5.53312 -0.670901 2.97345
rclavicle -6.04305e-014 5.56597e-014
rhumerus -0.371198 52.6558 -30.012
rradius 48.7501
rwrist -45.5524
rhand -24.8745 6.96952
rfingers 7.12502
rthumb 1.63279 -23.004
lclavicle -6.04305e-014 5.56597e-014
lhumerus -8.18658 -64.778 53.9201
lradius 66.6211
lwrist -15.0766
lhand 9.50335 47.9101
lfingers 7.12502
lthumb 34.6551 -1005.45
rfemur -30.7671 4.0732 13.8284
rtibia 36.6927
rfoot -7.20406 -28.3195
rtoes 1.66946
lfemur -20.6944 -0.667791 -9.39662
ltibia 25.7958
lfoot -9.18937 12.6969
ltoes -13.2952
1478
root 14.3571 15.9342 -25.5524 -171.686 -163.696 -176.451
lowerback 15.2205 -2.69209 2.10063
upperback 5.97395 -3.21138 2.02232
thorax -2.18812 -1.60915 1.47108
lowerneck -3.01435 -1.80622 -7.91868
upperneck -19.8614 -2.04772 4.98103
head -5.34605 -0.836447 2.98356
rclavicle 4.45278e-014 3.18055e-015
rhumerus -1.40227 55.4875 -31.2519
rradius 49.8477
rwrist -45.4853
rhand -22.4616 6.99753
rfingers 7.12502
rthumb 3.96305 -22.9454
lclavicle 4.45278e-014 3.18055e-015
lhumerus -10.7339 -64.7963 55.6349
lradius 65.3745
lwrist -13.9876
lhand 10.879 48.7738
lfingers 7.12502
lthumb 35.9596 -1004.9
rfemur -30.2784 4.54265 14.2288
rtibia 36.3367
rfoot -6.91812 -28.4961
rtoes 0.808223
lfemur -19.9449 -1.1755 -8.95927
ltibia 25.2322
lfoot -9.7213 13.5683
ltoes -13.4004
1479
root 14.3907 15.9393 -25.5011 -171.839 -163.46 -176.63
lowerback 14.4553 -2.56084 2.24452
upperback 5.73468 -3.04047 2.08235
thorax -2.0384 -1.52335 1.39408
lowerneck -3.25855 -2.05113 -7.90779
upperneck -19.1501 -2.33902 5.14349
head -5.06005 -0.994909 3.02318
rclavicle -4.33351e-014 -2.38542e-015
rhumerus -2.26801 58.0476 -32.5608
rradius 51.0117
rwrist -45.1204
rhand -20.9737 6.66117
rfingers 7.12502
rthumb 5.39971 -23.25
lclavicle -4.33351e-014 -2.38542e-015
lhumerus -12.7998 -64.7257 56.6431
lradius 64.3637
lwrist -12.3748
lhand 11.0417 49.2369
lfingers 7.12502
lthumb 36.1137 -1004.47
rfemur -29.7247 5.14509 14.1583
rtibia 35.9616
rfoot -7.04741 -28.7454
rtoes 1.52714
lfemur -19.1015 -1.79888 -8.95994
ltibia 24.6582
lfoot -10.5236 14.3946
ltoes -11.9198
1480
root 14.4272 15.9422 -25.4497 -172.145 -163.371 -176.381
lowerback 13.817 -2.45659 1.94343
upperback 5.45838 -2.95678 2.12178
thorax -1.97176 -1.48513 1.56804
lowerneck -3.51295 -2.24891 -8.02105
upperneck -18.3977 -2.5657 5.31694
head -4.76405 -1.11308 3.08267
rclavicle -1.63003e-014 -6.36111e-015
rhumerus -3.26386 60.6596 -33.7945
rradius 52.3354
rwrist -44.8049
rhand -21.5441 8.29401
rfingers 7.12502
rthumb 4.84903 -21.6305
lclavicle -1.63003e-014 -6.36111e-015
lhumerus -14.495 -64.6981 57.3599
lradius 63.4424
lwrist -10.3563
lhand 11.8338 50.3518
lfingers 7.12502
lthumb 36.8635 -1003.55
rfemur -29.1148 5.63042 13.6443
rtibia 35.6203
rfoot -6.89388 -29.1863
rtoes 1.59924
lfemur -18.2673 -2.86109 -9.35926
ltibia 24.0143
lfoot -11.4442 15.161
ltoes -7.2572
1481
root 14.4631 15.9442 -25.3972 -172.308 -163.274 -176.492
lowerback 13.1629 -2.27055 2.00474
upperback 5.16945 -2.71566 2.24468
thorax -1.92293 -1.36556 1.6036
lowerneck -3.69823 -2.53902 -7.91975
upperneck -17.6808 -2.9574 5.23709
head -4.48954 -1.31275 3.03073
rclavicle -5.28767e-014 -7.95139e-015
rhumerus -5.01612 63.0778 -35.578
rradius 53.821
rwrist -44.7928
rhand -19.0337 7.38221
rfingers 7.12502
rthumb 7.27259 -22.4728
lclavicle -5.28767e-014 -7.95139e-015
lhumerus -15.7382 -64.9303 57.7631
lradius 62.5692
lwrist -8.55986
lhand 13.1362 51.5064
lfingers 7.12502
lthumb 38.0945 -1002.72
rfemur -28.5474 6.1538 13.511
rtibia 35.3081
rfoot -7.14811 -29.5097
rtoes 1.7706
lfemur -17.4566 -3.79004 -9.36983
ltibia 23.3043
lfoot -12.0147 15.8866
ltoes -5.23578
1482
root 14.4985 15.9504 -25.3418 -172.505 -163.088 -176.634
lowerback 12.5167 -2.11729 2.16061
upperback 4.89161 -2.5092 2.29654
thorax -1.87172 -1.26158 1.52009
lowerneck -3.77883 -2.80826 -7.62179
upperneck -17.0217 -3.36068 4.90345
head -4.26123 -1.518 2.86929
rclavicle 5.00937e-014 -3.89618e-014
rhumerus -6.86078 65.4687 -37.7045
rradius 55.4034
rwrist -45.0468
rhand -17.5238 7.73948
rfingers 7.12502
rthumb 8.72988 -22.06
lclavicle 5.00937e-014 -3.89618e-014
lhumerus -17.3057 -65.0109 58.2767
lradius 61.8308
lwrist -7.13932
lhand 12.7994 51.4955
lfingers 7.12502
lthumb 37.7763 -1002.64
rfemur -27.9082 6.68712 13.4073
rtibia 34.9568
rfoot -8.07318 -29.5498
rtoes 3.33401
lfemur -16.6152 -4.4488 -9.40448
ltibia 22.711
lfoot -11.8483 16.7047
ltoes -7.81992
1483
root 14.5366 15.9561 -25.2875 -172.712 -162.956 -176.703
lowerback 11.9837 -2.08857 2.13414
upperback 4.47011 -2.47627 2.42577
thorax -2.01666 -1.24619 1.65337
lowerneck -3.44695 -2.91004 -7.70255
upperneck -16.4551 -3.54401 4.73185
head -4.13442 -1.60186 2.82626
rclavicle -2.14687e-014 -1.03368e-014
rhumerus -8.56757 68.216 -39.6622
rradius 57.1726
rwrist -45.0235
rhand -16.3514 8.16292
rfingers 7.12502
rthumb 9.8611 -21.5862
lclavicle -2.14687e-014 -1.03368e-014
lhumerus -19.9845 -64.7269 59.6698
lradius 61.341
lwrist -6.05437
lhand 12.4754 51.4412
lfingers 7.12502
lthumb 37.4702 -1002.62
rfemur -27.245 7.0825 13.2629
rtibia 34.5424
rfoot -8.46157 -29.6965
rtoes 3.77796
lfemur -15.8868 -5.07673 -9.53394
ltibia 22.298
lfoot -11.6029 17.2904
ltoes -9.62986
1484
root 14.5749 15.9617 -25.2394 -172.735 -162.916 -177.134
lowerback 11.4678 -1.82392 2.63642
upperback 4.27973 -2.08538 2.46563
thorax -1.95485 -1.04865 1.34582
lowerneck -4.49812 -3.31831 -7.4654
upperneck -14.8925 -4.04502 4.60983
head -3.87258 -1.84656 2.95307
rclavicle -1.82882e-014 7.95139e-016
rhumerus -11.8274 69.6867 -43.0941
rradius 58.9872
rwrist -44.615
rhand -15.088 8.7948
rfingers 7.12502
rthumb 11.0799 -20.8927
lclavicle -1.82882e-014 7.95139e-016
lhumerus -19.7982 -65.0892 58.5315
lradius 60.796
lwrist -5.30002
lhand 13.2281 51.3231
lfingers 7.12502
lthumb 38.1812 -1002.93
rfemur -26.6769 7.62908 13.4965
rtibia 34.104
rfoot -8.47901 -30.1289
rtoes 3.14946
lfemur -15.3322 -5.49778 -9.29405
ltibia 21.9701
lfoot -11.4446 17.7396
ltoes -11.563
